# xmcd
#
# Track frame offsets:
#	150
#	14240
#	30380
#	43143
#	60288
#	72933
#	88098
#	100703
#	115745
#	135005
#
# Disc length: 2040 seconds
#
# Revision: 8
# Processed by: cddbd v1.5.2PL0 Copyright (c) Steve Scherf et al.
# Submitted via: EZCDAudioConverter 6.0.5.1
#
DISCID=7807f60a
DTITLE=McBride and The Ride - Hurry Sundown
DYEAR=1993
DGENRE=Country
TTITLE0=Love On The Loose, Heart On The Run
TTITLE1=Hurry Sundown
TTITLE2=Don't Be Mean To Me
TTITLE3=The Promise Land 
TTITLE4=Hangin' In And Hangin' On
TTITLE5=Tell Me Again
TTITLE6=Cream Of The Crop
TTITLE7=Hold On To Me And Let Go Of The Past
TTITLE8=Just The Thought Of Losing You
TTITLE9=Sweetwater
EXTD=
EXTT0=
EXTT1=
EXTT2=
EXTT3=
EXTT4=
EXTT5=
EXTT6=
EXTT7=
EXTT8=
EXTT9=
PLAYORDER=
